# xmcd
#
# Track frame offsets:
#	150
#	10270
#	20336
#	32392
#	44176
#	52104
#	62979
#	74418
#	83866
#	94370
#
# Disc length: 1415 seconds
#
# Revision: 0
# Processed by: cddbd v1.5.2PL0 Copyright (c) Steve Scherf et al.
# Submitted via: dBpowerAMP V4.0
#
DISCID=8a05850a
DTITLE=TONY BOOTH - WHEN A MAN LOVES A WOMAN
DYEAR=1900
DGENRE=Country
TTITLE0=When A Man Loves A Woman - (B.
TTITLE1=How Long Will My Baby Be Gone
TTITLE2=He Don't Deserve You Anymore -
TTITLE3=Colors I'm Gonna Paint The Tow
TTITLE4=Love's Gonna Live Here - (B.Ow
TTITLE5=Sweethearts In Heaven - (B.Owe
TTITLE6=Mirror Mirror On The Wall - (B
TTITLE7=You'll Never Miss The Water -
TTITLE8=Would You Settle For Roses - (
TTITLE9=Courage To Go Home - (J.Lebsoc
EXTD=
EXTT0=
EXTT1=
EXTT2=
EXTT3=
EXTT4=
EXTT5=
EXTT6=
EXTT7=
EXTT8=
EXTT9=
PLAYORDER=
